<?xml version="1.0" standalone="no"?>
<!DOCTYPE svg PUBLIC "-//W3C//DTD SVG 20010904//EN"
 "http://www.w3.org/TR/2001/REC-SVG-20010904/DTD/svg10.dtd">
<svg version="1.0" xmlns="http://www.w3.org/2000/svg"
 width="512.000000pt" height="512.000000pt" viewBox="0 0 512.000000 512.000000"
 preserveAspectRatio="xMidYMid meet">
<metadata>
Created by potrace 1.14, written by Peter Selinger 2001-2017
</metadata>
<g transform="translate(0.000000,512.000000) scale(0.100000,-0.100000)"
fill="#000000" stroke="none">
<path d="M1848 4644 c-59 -18 -118 -72 -118 -108 0 -61 44 -94 100 -75 16 6
30 15 30 19 0 12 40 25 65 21 11 -2 35 -16 53 -32 44 -39 90 -39 134 0 51 44
68 45 119 12 49 -33 82 -33 112 1 84 97 -125 219 -259 150 -37 -19 -38 -19
-72 0 -44 24 -105 29 -164 12z"/>
<path d="M4270 4536 c-80 -23 -150 -58 -215 -108 -43 -33 -120 -122 -145 -166
-8 -15 -16 -29 -18 -31 -1 -3 -15 5 -30 16 -15 11 -41 27 -58 36 -29 15 -34
15 -70 -4 -37 -18 -42 -19 -86 -4 -27 8 -68 18 -93 22 -34 4 -45 10 -45 23 0
10 -7 23 -15 30 -8 7 -13 15 -11 19 8 12 -104 12 -162 1 -78 -16 -186 -57
-206 -79 -9 -10 -19 -34 -23 -54 -9 -57 17 -88 111 -131 97 -44 197 -106 190
-118 -3 -5 -9 -6 -13 -4 -15 10 -137 -26 -206 -59 -118 -57 -256 -199 -271
-279 -7 -38 15 -89 45 -105 10 -6 99 -29 197 -51 99 -23 187 -43 196 -46 15
-4 13 -12 -14 -66 -50 -102 -62 -155 -61 -278 1 -123 47 -265 102 -314 25 -23
87 -29 121 -11 14 7 50 40 80 73 30 33 129 136 220 230 l165 170 23 -34 c13
-19 20 -40 16 -47 -4 -7 -3 -9 1 -4 5 4 28 -30 51 -76 52 -105 94 -218 130
-352 37 -138 51 -302 45 -532 l-1 -53 -739 0 -739 0 -7 43 c-16 104 -74 242
-146 349 -113 166 -309 301 -514 353 -16 5 -37 10 -45 13 -39 12 -279 10 -341
-3 -344 -73 -605 -321 -694 -661 -8 -32 -15 -66 -15 -76 0 -17 -24 -18 -454
-18 -273 0 -465 -4 -480 -10 -57 -21 -59 -97 -3 -130 l32 -19 -1 -683 c-1
-376 -2 -686 -3 -689 0 -4 -11 -9 -24 -13 -33 -8 -49 -41 -41 -82 10 -55 31
-59 273 -59 116 0 211 -4 211 -8 0 -5 6 -5 12 -1 7 5 55 9 108 9 104 1 136 12
146 50 6 24 8 25 104 25 l98 0 12 -29 c16 -41 44 -47 192 -46 71 0 128 -3 128
-8 0 -4 6 -5 13 0 16 10 887 11 894 1 2 -5 9 -6 14 -2 19 11 58 14 64 4 4 -6
13 -7 23 -2 9 5 633 8 1386 8 1025 -1 1375 2 1396 10 55 23 49 112 -9 132
l-26 9 1 154 c2 191 -1 176 29 183 54 14 57 105 4 128 l-29 13 0 172 c0 143 2
173 14 173 21 0 56 48 56 76 0 24 -23 53 -56 72 -17 10 -19 27 -19 211 0 182
1 201 17 201 22 0 58 47 58 77 0 13 -11 35 -25 48 -23 24 -30 25 -150 25
l-125 0 -1 43 c-8 392 -169 822 -446 1190 -23 31 -43 61 -43 65 0 5 24 13 53
19 127 26 540 135 561 148 53 35 59 100 15 170 -97 153 -295 265 -474 268 -30
1 -55 4 -55 8 0 3 25 87 55 185 31 99 57 192 59 208 4 37 -12 71 -44 89 -37
22 -142 19 -230 -7z"/>
<path d="M618 3825 c-54 -18 -86 -41 -108 -77 -24 -40 -10 -85 33 -103 35 -14
52 -11 83 17 37 33 69 32 108 -3 37 -32 112 -51 125 -32 3 5 22 21 43 37 35
26 37 27 70 11 18 -8 44 -22 57 -29 17 -11 31 -12 52 -4 34 12 49 35 49 77 0
35 -59 91 -112 108 -48 14 -121 8 -165 -13 -37 -18 -39 -18 -75 -1 -48 24
-113 29 -160 12z"/>
<path d="M1810 3335 c-22 -23 -25 -35 -24 -101 0 -62 4 -78 21 -96 27 -26 79
-26 106 0 35 36 28 192 -11 207 -44 18 -68 15 -92 -10z"/>
<path d="M1186 3169 c-34 -27 -33 -58 5 -129 29 -55 59 -80 98 -80 20 0 60 35
62 53 3 35 -6 64 -33 108 -44 73 -83 87 -132 48z"/>
<path d="M2437 3173 c-28 -32 -75 -132 -71 -150 9 -34 32 -54 65 -59 41 -5 55
5 97 74 32 53 36 70 26 108 -11 41 -88 58 -117 27z"/>
<path d="M722 2707 c-27 -28 -28 -67 -4 -96 9 -11 43 -34 75 -50 62 -32 95
-31 123 7 35 46 9 95 -76 140 -54 28 -91 28 -118 -1z"/>
<path d="M2895 2716 c-87 -50 -105 -69 -105 -105 1 -33 19 -57 53 -70 22 -9
36 -5 84 20 32 16 66 39 76 50 55 66 -31 150 -108 105z"/>
</g>
</svg>
